<svg width="800" height="500" viewBox="0 0 800 500" fill="none" xmlns="http://www.w3.org/2000/svg">
  <rect width="800" height="500" fill="#050505"/>
  <defs>
    <linearGradient id="gold" x1="0%" y1="0%" x2="100%" y2="100%">
      <stop offset="0%" stop-color="#F3E5AB"/>
      <stop offset="50%" stop-color="#D4AF37"/>
      <stop offset="100%" stop-color="#AA7C11"/>
    </linearGradient>
    <radialGradient id="glow" cx="50%" cy="40%" r="50%">
      <stop offset="0%" stop-color="#D4AF37" stop-opacity="0.15"/>
      <stop offset="100%" stop-color="#D4AF37" stop-opacity="0"/>
    </radialGradient>
  </defs>
  <rect width="800" height="500" fill="url(#glow)"/>
  <text x="400" y="48" text-anchor="middle" fill="#FFFFFF" fill-opacity="0.3" font-family="Montserrat, sans-serif" font-size="11" letter-spacing="6">SABOR GOLD  BRAND IDENTITY MOCKUP</text>
  <!-- Card: horizontal on dark -->
  <rect x="60" y="80" width="320" height="100" rx="12" fill="#121212" stroke="#D4AF37" stroke-opacity="0.2"/>
  <text x="80" y="108" fill="#D4AF37" fill-opacity="0.5" font-size="9" letter-spacing="2">FUNDO PRETO</text>
  <image href="/brand/logo-horizontal-gold.svg" x="100" y="115" width="240" height="55"/>
  <!-- Card: vertical -->
  <rect x="420" y="80" width="160" height="200" rx="12" fill="#121212" stroke="#D4AF37" stroke-opacity="0.2"/>
  <text x="440" y="108" fill="#D4AF37" fill-opacity="0.5" font-size="9" letter-spacing="2">VERTICAL</text>
  <g transform="translate(420,115)">
    <path d="M65 28L72 35L80 25L88 35L95 28L91 40H69L65 28Z" fill="url(#gold)"/>
    <path d="M50 38C50 38 50 65 80 82C110 65 110 38 110 38C110 38 80 35 80 35C80 35 50 38 50 38Z" stroke="url(#gold)" stroke-width="2.5"/>
    <path d="M72 47C74 45.5 78 44 81 44C86.5 44 88.5 47 88.5 49.5C88.5 54 81.5 55 75.5 56.5C70.5 57.7 69.5 61.5 69.5 64.5C69.5 68.5 73.5 71 79.5 71C84 71 88 69 88 69" stroke="url(#gold)" stroke-width="3.5" stroke-linecap="round"/>
    <text x="80" y="115" text-anchor="middle" fill="url(#gold)" font-family="Cinzel, serif" font-size="14" font-weight="700" letter-spacing="4">SABOR GOLD</text>
    <text x="80" y="132" text-anchor="middle" fill="#D4AF37" fill-opacity="0.6" font-family="Montserrat" font-size="7" letter-spacing="3">LIFESTYLE &amp; VAPE</text>
  </g>
  <!-- Card: white version -->
  <rect x="60" y="220" width="320" height="100" rx="12" fill="#FFFFFF"/>
  <text x="80" y="248" fill="#050505" fill-opacity="0.4" font-size="9" letter-spacing="2">VERSĂO BRANCA</text>
  <g transform="translate(100,255) scale(0.7)">
    <path d="M35 28L42 35L50 25L58 35L65 28L61 40H39L35 28Z" fill="#050505"/>
    <path d="M20 38C20 38 20 65 50 82C80 65 80 38 80 38Z" stroke="#050505" stroke-width="2.5"/>
    <text x="95" y="42" fill="#050505" font-family="Cinzel" font-size="18" font-weight="700" letter-spacing="5">SABOR GOLD</text>
  </g>
  <!-- Favicon preview -->
  <rect x="420" y="320" width="120" height="120" rx="12" fill="#121212" stroke="#D4AF37" stroke-opacity="0.2"/>
  <text x="440" y="348" fill="#D4AF37" fill-opacity="0.5" font-size="9" letter-spacing="2">FAVICON</text>
  <rect x="450" y="360" width="60" height="60" rx="12" fill="#050505"/>
  <g transform="translate(460,370) scale(0.5)">
    <path d="M35 28L42 35L50 25L58 35L65 28L61 40H39L35 28Z" fill="url(#gold)"/>
    <path d="M20 38C20 38 20 65 50 82C80 65 80 38 80 38Z" stroke="url(#gold)" stroke-width="2.5"/>
    <path d="M42 47C44 45.5 48 44 51 44C56.5 44 58.5 47 58.5 49.5C58.5 54 51.5 55 45.5 56.5C40.5 57.7 39.5 61.5 39.5 64.5C39.5 68.5 43.5 71 49.5 71C54 71 58 69 58 69" stroke="url(#gold)" stroke-width="3.5" stroke-linecap="round"/>
    <path d="M59 52C59 52 54.5 50 51 50M46.5 63C47 64 48.5 65.5 51.5 65.5C56.5 65.5 58 61.5 58 58.5V55.5H50" stroke="url(#gold)" stroke-width="3" stroke-linecap="round"/>
  </g>
  <!-- Instagram square -->
  <rect x="580" y="320" width="120" height="120" rx="12" fill="#121212" stroke="#D4AF37" stroke-opacity="0.2"/>
  <text x="600" y="348" fill="#D4AF37" fill-opacity="0.5" font-size="9" letter-spacing="2">INSTAGRAM</text>
  <circle cx="640" cy="390" r="40" fill="url(#gold)" fill-opacity="0.08"/>
  <g transform="translate(600,350)">
    <path d="M35 28L42 35L50 25L58 35L65 28L61 40H39L35 28Z" fill="url(#gold)"/>
    <path d="M20 38C20 38 20 65 50 82C80 65 80 38 80 38Z" stroke="url(#gold)" stroke-width="2.5"/>
    <text x="50" y="100" text-anchor="middle" fill="url(#gold)" font-family="Cinzel" font-size="10" font-weight="700" letter-spacing="3">SABOR GOLD</text>
  </g>
  <text x="400" y="470" text-anchor="middle" fill="#FFFFFF" fill-opacity="0.25" font-family="Montserrat" font-size="10" letter-spacing="4">© SABOR GOLD CO.  PREMIUM LIFESTYLE &amp; VAPE</text>
</svg>
