<svg width="160" height="200" viewBox="0 0 160 200" fill="none" xmlns="http://www.w3.org/2000/svg">
  <defs>
    <linearGradient id="gold-grad" x1="0%" y1="0%" x2="100%" y2="100%">
      <stop offset="0%" stop-color="#F3E5AB"/>
      <stop offset="50%" stop-color="#D4AF37"/>
      <stop offset="100%" stop-color="#AA7C11"/>
    </linearGradient>
  </defs>
  <g transform="translate(30,10)">
    <path d="M35 28L42 35L50 25L58 35L65 28L61 40H39L35 28Z" fill="url(#gold-grad)"/>
    <path d="M20 38C20 38 20 65 50 82C80 65 80 38 80 38C80 38 50 35 50 35C50 35 20 38 20 38Z" stroke="url(#gold-grad)" stroke-width="2.5"/>
    <path d="M42 47C44 45.5 48 44 51 44C56.5 44 58.5 47 58.5 49.5C58.5 54 51.5 55 45.5 56.5C40.5 57.7 39.5 61.5 39.5 64.5C39.5 68.5 43.5 71 49.5 71C54 71 58 69 58 69" stroke="url(#gold-grad)" stroke-width="3.5" stroke-linecap="round"/>
    <path d="M59 52C59 52 54.5 50 51 50M46.5 63C47 64 48.5 65.5 51.5 65.5C56.5 65.5 58 61.5 58 58.5V55.5H50" stroke="url(#gold-grad)" stroke-width="3" stroke-linecap="round"/>
  </g>
  <text x="80" y="130" text-anchor="middle" fill="url(#gold-grad)" font-family="Cinzel, Georgia, serif" font-size="18" font-weight="700" letter-spacing="5">SABOR GOLD</text>
  <text x="80" y="152" text-anchor="middle" fill="#D4AF37" fill-opacity="0.6" font-family="Montserrat, sans-serif" font-size="8" font-weight="500" letter-spacing="4">LIFESTYLE &amp; VAPE</text>
</svg>
